# Blender v2.79 (sub 0) OBJ File: 'bullet.blend'
# www.blender.org
mtllib bullet.mtl
o Cylinder_Cylinder.001
v 0.000000 -1.500000 -0.500000
v 0.000000 1.376960 -0.000000
v 0.097545 -1.500000 -0.490393
v 0.191342 -1.500000 -0.461940
v 0.277785 -1.500000 -0.415735
v 0.353553 -1.500000 -0.353553
v 0.415735 -1.500000 -0.277785
v 0.461940 -1.500000 -0.191342
v 0.490393 -1.500000 -0.097545
v 0.500000 -1.500000 -0.000000
v 0.490393 -1.500000 0.097545
v 0.461940 -1.500000 0.191342
v 0.415735 -1.500000 0.277785
v 0.353553 -1.500000 0.353553
v 0.277785 -1.500000 0.415735
v 0.191342 -1.500000 0.461940
v 0.097545 -1.500000 0.490393
v -0.000000 -1.500000 0.500000
v -0.097545 -1.500000 0.490393
v -0.191342 -1.500000 0.461940
v -0.277785 -1.500000 0.415735
v -0.353554 -1.500000 0.353553
v -0.415735 -1.500000 0.277785
v -0.461940 -1.500000 0.191341
v -0.490393 -1.500000 0.097545
v -0.500000 -1.500000 -0.000000
v -0.490393 -1.500000 -0.097546
v -0.461940 -1.500000 -0.191342
v -0.415734 -1.500000 -0.277786
v -0.353553 -1.500000 -0.353554
v -0.277785 -1.500000 -0.415735
v -0.191341 -1.500000 -0.461940
v -0.097544 -1.500000 -0.490393
v 0.000000 0.049605 -0.500000
v 0.097545 0.049605 -0.490393
v 0.191342 0.049605 -0.461940
v 0.277785 0.049605 -0.415735
v 0.353553 0.049605 -0.353553
v 0.415735 0.049605 -0.277785
v 0.461940 0.049605 -0.191342
v 0.490393 0.049605 -0.097545
v 0.500000 0.049605 -0.000000
v 0.490393 0.049605 0.097545
v 0.461940 0.049605 0.191342
v 0.415735 0.049605 0.277785
v 0.353553 0.049605 0.353553
v 0.277785 0.049605 0.415735
v 0.191342 0.049605 0.461940
v 0.097545 0.049605 0.490393
v -0.000000 0.049605 0.500000
v -0.097545 0.049605 0.490393
v -0.191342 0.049605 0.461940
v -0.277785 0.049605 0.415735
v -0.353554 0.049605 0.353553
v -0.415735 0.049605 0.277785
v -0.461940 0.049605 0.191341
v -0.490393 0.049605 0.097545
v -0.500000 0.049605 -0.000000
v -0.490393 0.049605 -0.097546
v -0.461940 0.049605 -0.191342
v -0.415734 0.049605 -0.277786
v -0.353553 0.049605 -0.353554
v -0.277785 0.049605 -0.415735
v -0.191341 0.049605 -0.461940
v -0.097544 0.049605 -0.490393
v 0.000000 0.623947 -0.436831
v 0.085221 0.623946 -0.428437
v 0.167168 0.623946 -0.403579
v 0.242690 0.623946 -0.363212
v 0.308886 0.623946 -0.308886
v 0.363212 0.623946 -0.242690
v 0.403579 0.623946 -0.167168
v 0.428437 0.623946 -0.085221
v 0.436831 0.623946 -0.000000
v 0.428437 0.623946 0.085221
v 0.403579 0.623946 0.167168
v 0.363212 0.623946 0.242690
v 0.308886 0.623946 0.308886
v 0.242690 0.623946 0.363212
v 0.167168 0.623946 0.403579
v 0.085221 0.623946 0.428437
v -0.000000 0.623946 0.436831
v -0.085222 0.623946 0.428437
v -0.167168 0.623946 0.403579
v -0.242690 0.623946 0.363211
v -0.308886 0.623946 0.308886
v -0.363212 0.623946 0.242690
v -0.403579 0.623946 0.167168
v -0.428437 0.623946 0.085221
v -0.436831 0.623946 -0.000000
v -0.428437 0.623946 -0.085222
v -0.403579 0.623946 -0.167168
v -0.363211 0.623946 -0.242691
v -0.308886 0.623946 -0.308886
v -0.242690 0.623946 -0.363212
v -0.167167 0.623946 -0.403579
v -0.085221 0.623946 -0.428437
v 0.000000 1.150405 -0.309123
v 0.060307 1.150405 -0.303184
v 0.118296 1.150405 -0.285593
v 0.171740 1.150405 -0.257027
v 0.218583 1.150405 -0.218583
v 0.257027 1.150405 -0.171740
v 0.285593 1.150405 -0.118296
v 0.303184 1.150405 -0.060307
v 0.309123 1.150405 -0.000000
v 0.303184 1.150405 0.060307
v 0.285593 1.150405 0.118296
v 0.257027 1.150405 0.171740
v 0.218583 1.150405 0.218583
v 0.171740 1.150405 0.257027
v 0.118296 1.150405 0.285593
v 0.060307 1.150405 0.303183
v -0.000000 1.150405 0.309123
v -0.060307 1.150405 0.303183
v -0.118296 1.150405 0.285592
v -0.171740 1.150405 0.257026
v -0.218583 1.150405 0.218583
v -0.257027 1.150405 0.171739
v -0.285593 1.150405 0.118296
v -0.303184 1.150405 0.060307
v -0.309123 1.150405 -0.000000
v -0.303183 1.150405 -0.060307
v -0.285592 1.150405 -0.118297
v -0.257026 1.150405 -0.171740
v -0.218583 1.150405 -0.218583
v -0.171739 1.150405 -0.257027
v -0.118296 1.150405 -0.285593
v -0.060306 1.150405 -0.303184
v 0.022289 1.376960 -0.112056
v 0.000000 1.376960 -0.114251
v 0.043722 1.376960 -0.105554
v 0.063474 1.376960 -0.094996
v 0.080788 1.376960 -0.080788
v 0.094996 1.376960 -0.063475
v 0.105554 1.376960 -0.043722
v 0.112056 1.376960 -0.022289
v 0.114251 1.376960 -0.000000
v 0.112056 1.376960 0.022289
v 0.105554 1.376960 0.043722
v 0.094996 1.376960 0.063474
v 0.080788 1.376960 0.080787
v 0.063474 1.376960 0.094996
v 0.043722 1.376960 0.105554
v 0.022289 1.376960 0.112056
v 0.000000 1.376960 0.114251
v -0.022289 1.376960 0.112055
v -0.043722 1.376960 0.105554
v -0.063474 1.376960 0.094996
v -0.080788 1.376960 0.080787
v -0.094996 1.376960 0.063474
v -0.105554 1.376960 0.043722
v -0.112056 1.376960 0.022289
v -0.114251 1.376960 -0.000000
v -0.112056 1.376960 -0.022289
v -0.105554 1.376960 -0.043722
v -0.094996 1.376960 -0.063475
v -0.080787 1.376960 -0.080788
v -0.063474 1.376960 -0.094996
v -0.043722 1.376960 -0.105554
v -0.022289 1.376960 -0.112056
vn 0.0745 0.6503 -0.7560
vn 0.2205 0.6503 -0.7270
vn 0.3581 0.6503 -0.6700
vn 0.4819 0.6503 -0.5872
vn 0.5872 0.6503 -0.4819
vn 0.6700 0.6503 -0.3581
vn 0.7270 0.6503 -0.2205
vn 0.7560 0.6503 -0.0745
vn 0.7560 0.6503 0.0745
vn 0.7270 0.6503 0.2205
vn 0.6700 0.6503 0.3581
vn 0.5872 0.6503 0.4819
vn 0.4819 0.6503 0.5872
vn 0.3581 0.6503 0.6700
vn 0.2205 0.6503 0.7270
vn 0.0745 0.6503 0.7560
vn -0.0745 0.6503 0.7560
vn -0.2205 0.6503 0.7270
vn -0.3581 0.6503 0.6700
vn -0.4819 0.6503 0.5872
vn -0.5872 0.6503 0.4819
vn -0.6700 0.6503 0.3581
vn -0.7270 0.6503 0.2205
vn -0.7560 0.6503 0.0745
vn -0.7560 0.6503 -0.0745
vn -0.7270 0.6503 -0.2205
vn -0.6700 0.6503 -0.3581
vn -0.5872 0.6503 -0.4819
vn -0.4819 0.6503 -0.5872
vn -0.3581 0.6503 -0.6700
vn -0.2205 0.6503 -0.7270
vn -0.0745 0.6503 -0.7560
vn 0.0000 -1.0000 0.0000
vn -0.0980 0.0000 -0.9952
vn -0.2903 0.0000 -0.9569
vn -0.4714 0.0000 -0.8819
vn -0.6344 0.0000 -0.7730
vn -0.7730 0.0000 -0.6344
vn -0.8819 0.0000 -0.4714
vn -0.9569 0.0000 -0.2903
vn -0.9952 0.0000 -0.0980
vn -0.9952 0.0000 0.0980
vn -0.9569 0.0000 0.2903
vn -0.8819 0.0000 0.4714
vn -0.7730 0.0000 0.6344
vn -0.6344 0.0000 0.7730
vn -0.4714 0.0000 0.8819
vn -0.2903 0.0000 0.9569
vn -0.0980 0.0000 0.9952
vn 0.0980 0.0000 0.9952
vn 0.2903 0.0000 0.9569
vn 0.4714 0.0000 0.8819
vn 0.6344 0.0000 0.7730
vn 0.7730 0.0000 0.6344
vn 0.8819 0.0000 0.4714
vn 0.9569 0.0000 0.2903
vn 0.9952 0.0000 0.0980
vn 0.9952 0.0000 -0.0980
vn 0.9569 0.0000 -0.2903
vn 0.8819 0.0000 -0.4714
vn 0.7730 0.0000 -0.6344
vn 0.6344 0.0000 -0.7730
vn 0.4714 0.0000 -0.8819
vn 0.2903 0.0000 -0.9569
vn 0.0980 0.0000 -0.9952
vn -0.0974 0.1088 -0.9893
vn -0.2886 0.1088 -0.9513
vn -0.4686 0.1088 -0.8767
vn -0.6306 0.1088 -0.7684
vn -0.7684 0.1088 -0.6306
vn -0.8767 0.1088 -0.4686
vn -0.9513 0.1088 -0.2886
vn -0.9893 0.1088 -0.0974
vn -0.9893 0.1088 0.0974
vn -0.9513 0.1088 0.2886
vn -0.8767 0.1088 0.4686
vn -0.7684 0.1088 0.6306
vn -0.6306 0.1088 0.7684
vn -0.4686 0.1088 0.8767
vn -0.2886 0.1088 0.9513
vn -0.0974 0.1088 0.9893
vn 0.0974 0.1088 0.9893
vn 0.2886 0.1088 0.9513
vn 0.4686 0.1088 0.8767
vn 0.6306 0.1088 0.7684
vn 0.7684 0.1088 0.6306
vn 0.8767 0.1088 0.4686
vn 0.9513 0.1088 0.2886
vn 0.9893 0.1088 0.0974
vn 0.9893 0.1088 -0.0974
vn 0.9513 0.1088 -0.2886
vn 0.8767 0.1088 -0.4686
vn 0.7684 0.1088 -0.6306
vn 0.6306 0.1088 -0.7684
vn 0.4686 0.1088 -0.8767
vn 0.2886 0.1088 -0.9513
vn 0.0974 0.1088 -0.9893
vn -0.0953 0.2347 -0.9674
vn -0.2822 0.2347 -0.9302
vn -0.4582 0.2347 -0.8573
vn -0.6167 0.2347 -0.7514
vn -0.7514 0.2347 -0.6167
vn -0.8573 0.2347 -0.4582
vn -0.9302 0.2347 -0.2822
vn -0.9674 0.2347 -0.0953
vn -0.9674 0.2347 0.0953
vn -0.9302 0.2347 0.2822
vn -0.8573 0.2347 0.4582
vn -0.7514 0.2347 0.6167
vn -0.6167 0.2347 0.7514
vn -0.4582 0.2347 0.8573
vn -0.2822 0.2347 0.9302
vn -0.0953 0.2347 0.9674
vn 0.0953 0.2347 0.9674
vn 0.2822 0.2347 0.9302
vn 0.4582 0.2347 0.8573
vn 0.6167 0.2347 0.7514
vn 0.7514 0.2347 0.6167
vn 0.8573 0.2347 0.4582
vn 0.9302 0.2347 0.2822
vn 0.9674 0.2347 0.0953
vn 0.9674 0.2347 -0.0953
vn 0.9302 0.2347 -0.2822
vn 0.8573 0.2347 -0.4582
vn 0.7514 0.2347 -0.6167
vn 0.6167 0.2347 -0.7514
vn 0.4582 0.2347 -0.8573
vn 0.2822 0.2347 -0.9302
vn 0.0953 0.2347 -0.9674
vn -0.0000 1.0000 0.0000
usemtl None
s off
f 131//1 99//1 98//1
f 130//2 100//2 99//2
f 132//3 101//3 100//3
f 101//4 134//4 102//4
f 134//5 103//5 102//5
f 135//6 104//6 103//6
f 136//7 105//7 104//7
f 137//8 106//8 105//8
f 138//9 107//9 106//9
f 139//10 108//10 107//10
f 108//11 141//11 109//11
f 109//12 142//12 110//12
f 110//13 143//13 111//13
f 143//14 112//14 111//14
f 112//15 145//15 113//15
f 145//16 114//16 113//16
f 146//17 115//17 114//17
f 115//18 148//18 116//18
f 116//19 149//19 117//19
f 149//20 118//20 117//20
f 150//21 119//21 118//21
f 151//22 120//22 119//22
f 152//23 121//23 120//23
f 121//24 154//24 122//24
f 154//25 123//25 122//25
f 155//26 124//26 123//26
f 156//27 125//27 124//27
f 125//28 158//28 126//28
f 126//29 159//29 127//29
f 159//30 128//30 127//30
f 128//31 161//31 129//31
f 129//32 131//32 98//32
f 17//33 25//33 9//33
f 65//34 1//34 33//34
f 64//35 33//35 32//35
f 63//36 32//36 31//36
f 62//37 31//37 30//37
f 61//38 30//38 29//38
f 60//39 29//39 28//39
f 59//40 28//40 27//40
f 58//41 27//41 26//41
f 57//42 26//42 25//42
f 56//43 25//43 24//43
f 55//44 24//44 23//44
f 54//45 23//45 22//45
f 53//46 22//46 21//46
f 52//47 21//47 20//47
f 51//48 20//48 19//48
f 50//49 19//49 18//49
f 49//50 18//50 17//50
f 48//51 17//51 16//51
f 47//52 16//52 15//52
f 46//53 15//53 14//53
f 45//54 14//54 13//54
f 44//55 13//55 12//55
f 43//56 12//56 11//56
f 42//57 11//57 10//57
f 41//58 10//58 9//58
f 40//59 9//59 8//59
f 39//60 8//60 7//60
f 38//61 7//61 6//61
f 37//62 6//62 5//62
f 36//63 5//63 4//63
f 35//64 4//64 3//64
f 34//65 3//65 1//65
f 97//66 34//66 65//66
f 96//67 65//67 64//67
f 95//68 64//68 63//68
f 94//69 63//69 62//69
f 93//70 62//70 61//70
f 92//71 61//71 60//71
f 91//72 60//72 59//72
f 90//73 59//73 58//73
f 89//74 58//74 57//74
f 88//75 57//75 56//75
f 55//76 88//76 56//76
f 86//77 55//77 54//77
f 85//78 54//78 53//78
f 84//79 53//79 52//79
f 83//80 52//80 51//80
f 50//81 83//81 51//81
f 49//82 82//82 50//82
f 80//83 49//83 48//83
f 47//84 80//84 48//84
f 78//85 47//85 46//85
f 77//86 46//86 45//86
f 76//87 45//87 44//87
f 75//88 44//88 43//88
f 74//89 43//89 42//89
f 73//90 42//90 41//90
f 40//91 73//91 41//91
f 71//92 40//92 39//92
f 70//93 39//93 38//93
f 37//94 70//94 38//94
f 68//95 37//95 36//95
f 67//96 36//96 35//96
f 66//97 35//97 34//97
f 129//98 66//98 97//98
f 128//99 97//99 96//99
f 95//100 128//100 96//100
f 126//101 95//101 94//101
f 125//102 94//102 93//102
f 124//103 93//103 92//103
f 123//104 92//104 91//104
f 90//105 123//105 91//105
f 121//106 90//106 89//106
f 120//107 89//107 88//107
f 119//108 88//108 87//108
f 118//109 87//109 86//109
f 117//110 86//110 85//110
f 116//111 85//111 84//111
f 83//112 116//112 84//112
f 82//113 115//113 83//113
f 113//114 82//114 81//114
f 112//115 81//115 80//115
f 111//116 80//116 79//116
f 110//117 79//117 78//117
f 109//118 78//118 77//118
f 76//119 109//119 77//119
f 107//120 76//120 75//120
f 106//121 75//121 74//121
f 105//122 74//122 73//122
f 104//123 73//123 72//123
f 71//124 104//124 72//124
f 70//125 103//125 71//125
f 69//126 102//126 70//126
f 100//127 69//127 68//127
f 99//128 68//128 67//128
f 66//129 99//129 67//129
f 2//130 130//130 131//130
f 2//130 132//130 130//130
f 2//130 133//130 132//130
f 2//130 134//130 133//130
f 2//130 135//130 134//130
f 2//130 136//130 135//130
f 2//130 137//130 136//130
f 2//130 138//130 137//130
f 2//130 139//130 138//130
f 2//130 140//130 139//130
f 2//130 141//130 140//130
f 2//130 142//130 141//130
f 2//130 143//130 142//130
f 2//130 144//130 143//130
f 2//130 145//130 144//130
f 2//130 146//130 145//130
f 2//130 147//130 146//130
f 2//130 148//130 147//130
f 2//130 149//130 148//130
f 2//130 150//130 149//130
f 2//130 151//130 150//130
f 2//130 152//130 151//130
f 2//130 153//130 152//130
f 2//130 154//130 153//130
f 2//130 155//130 154//130
f 2//130 156//130 155//130
f 2//130 157//130 156//130
f 2//130 158//130 157//130
f 2//130 159//130 158//130
f 2//130 160//130 159//130
f 2//130 161//130 160//130
f 2//130 131//130 161//130
f 131//1 130//1 99//1
f 130//2 132//2 100//2
f 132//3 133//3 101//3
f 101//4 133//4 134//4
f 134//5 135//5 103//5
f 135//6 136//6 104//6
f 136//7 137//7 105//7
f 137//8 138//8 106//8
f 138//9 139//9 107//9
f 139//10 140//10 108//10
f 108//11 140//11 141//11
f 109//12 141//12 142//12
f 110//13 142//13 143//13
f 143//14 144//14 112//14
f 112//15 144//15 145//15
f 145//16 146//16 114//16
f 146//17 147//17 115//17
f 115//18 147//18 148//18
f 116//19 148//19 149//19
f 149//20 150//20 118//20
f 150//21 151//21 119//21
f 151//22 152//22 120//22
f 152//23 153//23 121//23
f 121//24 153//24 154//24
f 154//25 155//25 123//25
f 155//26 156//26 124//26
f 156//27 157//27 125//27
f 125//28 157//28 158//28
f 126//29 158//29 159//29
f 159//30 160//30 128//30
f 128//31 160//31 161//31
f 129//32 161//32 131//32
f 33//33 1//33 3//33
f 3//33 4//33 5//33
f 5//33 6//33 7//33
f 7//33 8//33 5//33
f 9//33 10//33 11//33
f 11//33 12//33 9//33
f 13//33 14//33 17//33
f 15//33 16//33 17//33
f 17//33 18//33 21//33
f 19//33 20//33 21//33
f 21//33 22//33 23//33
f 23//33 24//33 25//33
f 25//33 26//33 27//33
f 27//33 28//33 29//33
f 29//33 30//33 33//33
f 31//33 32//33 33//33
f 33//33 3//33 9//33
f 5//33 8//33 9//33
f 9//33 12//33 13//33
f 14//33 15//33 17//33
f 18//33 19//33 21//33
f 21//33 23//33 25//33
f 25//33 27//33 33//33
f 30//33 31//33 33//33
f 3//33 5//33 9//33
f 9//33 13//33 17//33
f 17//33 21//33 25//33
f 27//33 29//33 33//33
f 33//33 9//33 25//33
f 65//34 34//34 1//34
f 64//35 65//35 33//35
f 63//36 64//36 32//36
f 62//37 63//37 31//37
f 61//38 62//38 30//38
f 60//39 61//39 29//39
f 59//40 60//40 28//40
f 58//41 59//41 27//41
f 57//42 58//42 26//42
f 56//43 57//43 25//43
f 55//44 56//44 24//44
f 54//45 55//45 23//45
f 53//46 54//46 22//46
f 52//47 53//47 21//47
f 51//48 52//48 20//48
f 50//49 51//49 19//49
f 49//50 50//50 18//50
f 48//51 49//51 17//51
f 47//52 48//52 16//52
f 46//53 47//53 15//53
f 45//54 46//54 14//54
f 44//55 45//55 13//55
f 43//56 44//56 12//56
f 42//57 43//57 11//57
f 41//58 42//58 10//58
f 40//59 41//59 9//59
f 39//60 40//60 8//60
f 38//61 39//61 7//61
f 37//62 38//62 6//62
f 36//63 37//63 5//63
f 35//64 36//64 4//64
f 34//65 35//65 3//65
f 97//66 66//66 34//66
f 96//67 97//67 65//67
f 95//68 96//68 64//68
f 94//69 95//69 63//69
f 93//70 94//70 62//70
f 92//71 93//71 61//71
f 91//72 92//72 60//72
f 90//73 91//73 59//73
f 89//74 90//74 58//74
f 88//75 89//75 57//75
f 55//76 87//76 88//76
f 86//77 87//77 55//77
f 85//78 86//78 54//78
f 84//79 85//79 53//79
f 83//80 84//80 52//80
f 50//81 82//81 83//81
f 49//82 81//82 82//82
f 80//83 81//83 49//83
f 47//84 79//84 80//84
f 78//85 79//85 47//85
f 77//86 78//86 46//86
f 76//87 77//87 45//87
f 75//88 76//88 44//88
f 74//89 75//89 43//89
f 73//90 74//90 42//90
f 40//91 72//91 73//91
f 71//92 72//92 40//92
f 70//93 71//93 39//93
f 37//94 69//94 70//94
f 68//95 69//95 37//95
f 67//96 68//96 36//96
f 66//97 67//97 35//97
f 129//98 98//98 66//98
f 128//99 129//99 97//99
f 95//100 127//100 128//100
f 126//101 127//101 95//101
f 125//102 126//102 94//102
f 124//103 125//103 93//103
f 123//104 124//104 92//104
f 90//105 122//105 123//105
f 121//106 122//106 90//106
f 120//107 121//107 89//107
f 119//108 120//108 88//108
f 118//109 119//109 87//109
f 117//110 118//110 86//110
f 116//111 117//111 85//111
f 83//112 115//112 116//112
f 82//113 114//113 115//113
f 113//114 114//114 82//114
f 112//115 113//115 81//115
f 111//116 112//116 80//116
f 110//117 111//117 79//117
f 109//118 110//118 78//118
f 76//119 108//119 109//119
f 107//120 108//120 76//120
f 106//121 107//121 75//121
f 105//122 106//122 74//122
f 104//123 105//123 73//123
f 71//124 103//124 104//124
f 70//125 102//125 103//125
f 69//126 101//126 102//126
f 100//127 101//127 69//127
f 99//128 100//128 68//128
f 66//129 98//129 99//129
